<svg xmlns="http://www.w3.org/2000/svg" viewBox="0 0 1366 768"><defs><style>.cls-1{fill:#acd4e2;}.cls-2{fill:#7a5a4f;}.cls-3{fill:#3a322e;}.cls-4{fill:#adb2af;}.cls-5{fill:#514742;}.cls-6{fill:#5b9974;}.cls-7{fill:#ceae8e;}.cls-8{fill:#5e9569;}</style></defs><title>Background (2)</title><g id="Layer_2" data-name="Layer 2"><g id="Background"><rect class="cls-1" width="1366" height="768"/><path class="cls-2" d="M1178.74,422.48V247.35a3.37,3.37,0,0,0-3.37-3.38h-51.82a3.37,3.37,0,0,0-3.37,3.38v47.22h-23.94V247.35a3.38,3.38,0,0,0-3.38-3.38h-13.8v-97.6a3.37,3.37,0,0,0-3.37-3.37H1062a3.37,3.37,0,0,0-3.37,3.37v26.95h-8.35V146.37a3.37,3.37,0,0,0-3.37-3.37h-13.67a3.37,3.37,0,0,0-3.38,3.37v26.95h-8.35V146.37a3.37,3.37,0,0,0-3.37-3.37h-13.67a3.37,3.37,0,0,0-3.38,3.37v26.95h-8.34V146.37a3.37,3.37,0,0,0-3.38-3.37H975.71a3.37,3.37,0,0,0-3.37,3.37V244H958.53a3.37,3.37,0,0,0-3.37,3.38v47.22H931.22V247.35a3.37,3.37,0,0,0-3.37-3.38H876a3.38,3.38,0,0,0-3.38,3.38V422.48H824.16a3.37,3.37,0,0,0-3.37,3.38V626.29a3.37,3.37,0,0,0,3.37,3.38h403.08a3.37,3.37,0,0,0,3.37-3.38V425.86a3.37,3.37,0,0,0-3.37-3.38Z"/><path class="cls-3" d="M968.87,629.67h113.66s5.41-107.39-56.83-107.39S968.87,629.67,968.87,629.67Z"/><rect class="cls-4" x="763.15" y="184.79" width="6.75" height="433.79"/><path class="cls-5" d="M887.39,501.76H925s1.79-68.45-18.82-68.45S887.39,501.76,887.39,501.76Z"/><path class="cls-5" d="M1006.88,501.76h37.63s1.8-68.45-18.81-68.45S1006.88,501.76,1006.88,501.76Z"/><path class="cls-5" d="M947.13,407.09h37.64s1.79-68.45-18.82-68.45S947.13,407.09,947.13,407.09Z"/><path class="cls-5" d="M1066.63,407.09h37.63s1.79-68.45-18.81-68.45S1066.63,407.09,1066.63,407.09Z"/><path class="cls-5" d="M1006.88,331.68h37.63s1.8-68.45-18.81-68.45S1006.88,331.68,1006.88,331.68Z"/><path class="cls-5" d="M1126.38,501.76H1164s1.79-68.45-18.82-68.45S1126.38,501.76,1126.38,501.76Z"/><g id="Layer_22" data-name="Layer 22"><path class="cls-6" d="M0,628.58s111.62-70.5,395.1-64.5,435,40.5,588,48S1218,553.86,1366,550.72V768H0Z"/></g><g id="Layer_31" data-name="Layer 31"><path class="cls-7" d="M912,768c31-65,72.8-81.78,35.1-122.48-11.6-12.52,44.57-33.09,44.57-33.09l74.92-3.45s-104.41,38.65,0,51.33S1138.9,768,1138.9,768Z"/></g><polygon class="cls-8" points="855.25 213.34 768.48 184.79 768.48 241.88 855.25 213.34"/><circle class="cls-8" cx="766.53" cy="177.09" r="8.86"/></g></g></svg>