<svg xmlns="http://www.w3.org/2000/svg" viewBox="0 0 159.41 266.96"><defs><style>.cls-1{fill:#bd7f4b;}.cls-2{fill:#ea3232;}.cls-3{fill:#0061d7;}.cls-4{fill:#e5e2e3;}.cls-5{fill:#fff605;}.cls-6{fill:#945622;}.cls-7{fill:#ef4343;}.cls-8{fill:#af2222;}.cls-9{fill:#3e0c01;}.cls-10{fill:#ffc49d;}.cls-11{fill:#1a0602;}.cls-12{fill:#ad3146;}.cls-13{fill:#fff;}.cls-14{fill:#0e0c0f;}.cls-15{fill:#ffceb3;}</style></defs><title>Mario</title><g id="Layer_2" data-name="Layer 2"><g id="Mario"><g id="Shoe_Details" data-name="Shoe Details"><path class="cls-1" d="M48.06,248.29V250c.91,3.71,22.41,5.16,33.5-.84l2.5,1.55c7.16-.34,13.71-.84,14.83-2.67v-3Z"/><path class="cls-1" d="M109.6,249.75v3.43c1,1.69,3.77,3.17,5.11,3.6.43,1.68.85,7.43,9.26,9.26s24,1.17,29-4.33v-2l-43.37-10"/></g><g id="Shirt"><path class="cls-2" d="M34,59.54c-.12-4.37,9.57-16.94,20.44-14.87L66.68,62.23V66.6C64.49,73,60.87,79,72.37,92.54c2.62,3.5,6.06,8.13,7.25,10.19s6.83,4.71,11,5.11,20.62-4.3,22.31-3.86,33.75,13,35.88,30.25c.18,6.37.62,11.94-16.25,21.81s-16.69-18.5-16.69-18.5l1.62-1.31c-2.18-1.13-6-1.69-7.68,2.31-5.19-5.25-7.07-12.69-8.94-17a12.28,12.28,0,0,0-11-7.44c-5.25-.31-13.5.44-21.81-7.56-7.25,1.3-7.32-.5-7.32-.5s1.25-2.06-.93-5.87C48.93,82,34,59.54,34,59.54Z"/></g><g id="Overalls"><path class="cls-3" d="M60.5,222.36c-.63-1.26-.88-1.88,1-3.26,0,0,.63.19-.31-3.87L50.87,169.79c-13.94-27.56-3.88-43.5.81-51.25l-.06-1.31C56.49,110.6,66.17,97,75,95.85l2.63,3.94-9.61,6.69c6.37,4.69,8.62,6.87,21.56,7.56,3.62-3.5,8.06-7,8.06-7l16.63-3.12,5.28,2.43s-8.6-3.81-18.22,15.75c6.12,14.19,3.85,10.79,8.44,16.44l-.38,1.81L121.81,173l20.62,50.37a33.07,33.07,0,0,0,4.06,5,3,3,0,0,1,.65,3.77c-.77,1.17-40.67,5.5-40.67,5.5h0a4.66,4.66,0,0,1-1-4.58c.56-1.19.25-.94,0-1.62,0,0-1.31-6.82-1.75-7.75s-9-26.19-11.37-29.19l8.25,31.94c1.93,3,2.5,4,1,6.62S60.5,222.36,60.5,222.36"/></g><g id="Gloves"><path class="cls-4" d="M117.49,136.23c-1.81-1.06-7.29-3.09-8.06,4.12-6.69,1.82-24.06,16.57-15.81,25.75.75,3.38,1,5.75,4.87,6.75,1.13,2.38,4.32,6.57,8.38,6.44,4.19,3.75,13.87,1.35,13.25-5.06,3.94-3.69,6.75-8.75,7.12-12.56,3.25-.07,5.69-1,5.13-5.75-1.19.56-9.56,2.2-16.5-17.92C116.81,137.06,117.49,136.23,117.49,136.23Z"/><path class="cls-4" d="M34.87,60.86c-4.48.1-6.81.35-7.65-5.24C15.14,50,12.06,47.87,11.06,46.54,7.72,44.44-.78,36.79.06,31.87c.58-2,1.91-2.58,2.16-2.5,0-1.05.27-4.86,7.27-4.36,2.53-5.59,17.32-.66,21,.34,4.68-.78,4.06-.4,4.65-.59s4.69-4.13,5.66-4c1.5-2.56,4.31-8.56,10.5-8.85,6.56.25,5.25,5,5.06,5.85s-4.31,6.62-3.75,9.19.78,9.5.16,10.59c5.65,1.47,4.95,6.16,3.09,9.25S34.87,60.86,34.87,60.86Z"/></g><g id="Buttons"><ellipse class="cls-5" cx="91.81" cy="124.01" rx="6.44" ry="6.09"/><path class="cls-5" d="M54,117.33c-1.24-2.14-1.94-3.88,1-7.27a1,1,0,0,1,.15-.14c2.48-1.82,2.74-2.52,6.09-1.82a.85.85,0,0,1,.65,1c-.57,2.57-1,3.81-4.3,7.17l-.17.13A18.77,18.77,0,0,1,55,117.68.84.84,0,0,1,54,117.33Z"/></g><g id="Shoes"><path class="cls-6" d="M60.06,222.29c-9.75-1.83-23,11-12,26a74.34,74.34,0,0,0,35.83-.5s11.83-.25,15-2.75,4.75-7.08,2.67-12S60.06,222.29,60.06,222.29Z"/><path class="cls-6" d="M106.47,237.62c-1.08,6.34,1,10.75,4.84,13.67,4,6.83,6.66,13.08,23.41,12.25,11.17-.67,18.42-2.92,20-5.25s5.5-17.92-7.58-26.17C132.56,225.29,106.47,237.62,106.47,237.62Z"/></g><g id="Hat"><path class="cls-2" d="M152.85,75.36C156.47,70.87,166.06,59,152,48,146.64,22.79,132.14,3.87,115.39.79S85.14,3.21,75.47,25.12c-11.18,4.25-12.91,12.09-2.08,17.75.17,2.59,1.65,1.68,1,3.8C79.22,47.62,152.85,75.36,152.85,75.36Z"/></g><g id="M"><path class="cls-4" d="M104.62,7.54c-7.28,0-13.18,5.54-13.18,12.38s5.9,12.37,13.18,12.37,13.19-5.54,13.19-12.37S111.91,7.54,104.62,7.54ZM113,24.48a2.52,2.52,0,0,1-1.82.49,3,3,0,0,1-1.94-1.41,4.29,4.29,0,0,1-.57-1.23,5.57,5.57,0,0,1-.14-1.55,17.35,17.35,0,0,1,.23-2.27c.14-1,.22-1.54.24-1.66h0l-1.34,1.71c-.36.45-.66.83-.88,1.13l-.82,1.08a29.18,29.18,0,0,1-1.9,2.41l-.1.07-.12.08a1.16,1.16,0,0,1-.4.16,1.17,1.17,0,0,1-.36,0,1.32,1.32,0,0,1-.77-.66,4.56,4.56,0,0,1-.59-1.43,12.45,12.45,0,0,1-.28-1.8,20.52,20.52,0,0,1,0-2.11c0-.81.12-1.78.25-2.93h0l-.6.85-.62.87-.48.69c-.36.52-.74,1-1.14,1.57s-.7.93-.93,1.21-.48.55-.74.82a5.26,5.26,0,0,1-.62.52,4.53,4.53,0,0,1-1.36.59,3.24,3.24,0,0,1-1.3.06.66.66,0,0,1-.37-.19.36.36,0,0,1-.12-.32c0-.11.13-.23.34-.38s.37-.34.77-.74l.71-.74q.65-.66,2-2.4l.61-.76c1.43-1.81,2.4-3.06,2.91-3.73a6,6,0,0,0,.8-1.18.62.62,0,0,0-.2-.49.54.54,0,0,1-.16-.36c0-.13.24-.23.62-.28a3.88,3.88,0,0,1,1.22,0,2.47,2.47,0,0,1,1.72.92,3.59,3.59,0,0,1,.36,1.52,24.38,24.38,0,0,1,0,3.14V16a.45.45,0,0,0,0,.11.66.66,0,0,1,0,.13,2.85,2.85,0,0,1,0,.35,15.16,15.16,0,0,0,0,1.62,1.85,1.85,0,0,0,.18.67l.27-.39a57.28,57.28,0,0,1,4.44-5.88l.33-.27a2.11,2.11,0,0,1,.3-.16A2.51,2.51,0,0,1,111,12a4.42,4.42,0,0,1,1.8,0,1.49,1.49,0,0,1,.68.23.49.49,0,0,1,.06.44c0,.17-.07.35-.12.55-.26,1.11-.44,1.91-.53,2.38a22.74,22.74,0,0,0-.41,3.46,12.69,12.69,0,0,0,.12,1.92,7.51,7.51,0,0,0,.39,1.38,5.15,5.15,0,0,0,.46.83c.17.24.24.41.22.52S113.37,24.21,113,24.48Z"/></g><g id="Hat_Details" data-name="Hat Details"><path class="cls-7" d="M138.63,62.53S117.72,30.08,106.84,27s-11-3.45-31.79-.58l61.38,39.29Z"/><path class="cls-8" d="M113.08,42.39s8.4,6.53,8.14,5.76c-1.16-3.42-18.6-21.36-32.79-22.42s-21,2.25-21.5,7.87,5.94,8.07,7.06,9.13.34,4,.34,4l38.75-4.3"/></g><g id="Back_Hair" data-name="Back Hair"><path class="cls-9" d="M112.93,104c5.63,1.31,11.29,3.56,11.71-1.52,8.75,1.91,12-1.63,9.08-7.9s-12.91-1.69-13.16-1.6-7.63,11-7.63,11"/></g><g id="Head"><path class="cls-10" d="M142.22,69.12s-4.16-9.75-8.58-11.5-8.42-5.5-10.67-7.91-30.66-25.5-45.41-8.84l-2,5.59c-3.42.41-9.84,2.87-8.88,20.14-3.12,7.61-4.08,13.3,2.77,22.23a51.45,51.45,0,0,0,5.59,7,60.26,60.26,0,0,0,5,7.45c2.16,2.49,8.19,4.9,11.36,4.55s18.14-2.77,21.51-3.87,10.79-1.19,16.38-10.94a10.4,10.4,0,0,0,1.08-.25s6.58,5.25,12.75.33,10.58-8.25,9.67-18.25C151.39,66.71,142.22,69.12,142.22,69.12Z"/></g><g id="Layer_21" data-name="Layer 21"><path class="cls-9" d="M142.22,69.12c-3.66,3.67-8,11.92-9,14.09s-4.5,4.08-4.08-5.75c-3.83-1.59-3.33-6.42.83-9.34a87.57,87.57,0,0,0,4-10.36,9,9,0,0,1,5,3c2.09,2.5,3.25,8.41,3.25,8.41"/></g><g id="Layer_16" data-name="Layer 16"><path class="cls-11" d="M91.89,45.29C92,40,91.64,33.54,87.06,33.71s-7.92,5.83-7.42,8.5c2.58-1.67,4-2.5,6.11-2S91.89,45.29,91.89,45.29Z"/><path class="cls-11" d="M105.56,49.12c4.33-5.91,6.75-7.58,10.41-6.75s8.84,6.09,6.67,12.09c-3.25-4.34-2.67-5.59-7.17-6.75S105.56,49.12,105.56,49.12Z"/></g><g id="Mouth"><path class="cls-12" d="M100.68,90.29c-4.75-.37-18.87-3.25-21.87-4.87.75,5.5,3.75,13.62,9.25,13.75C99.81,99.17,100.68,90.29,100.68,90.29Z"/></g><g id="Moustache"><path class="cls-11" d="M70.62,60.54c1.81,4.25,34.19,21.5,47,13.38,1.69,4,.94,12.18-8,10.87-2.69,4.06-7.19,7.38-12.31,2.25-4.38,2.61-8.19,3.81-12.75-.87-4.32,1.06-8.63.12-9.13-4.88-5.06,1.63-7.12-4-6.87-7.94C63.56,66.48,70.62,60.54,70.62,60.54Z"/></g><g id="Layer_18" data-name="Layer 18"><path class="cls-13" d="M100.31,65.79c1.25-6.12,4.12-14.87,9.5-14.62s8.25,3.75,7,10.12-1.75,9-4.75,10.75-11-2.12-11.75-3.5A3.08,3.08,0,0,1,100.31,65.79Z"/><path class="cls-13" d="M90.18,58.92c.63-2,3.75-13.38-2.12-13.5-7.13-.75-10.13,9.25-9.5,13.5S90.18,58.92,90.18,58.92Z"/></g><g id="Layer_19" data-name="Layer 19"><path class="cls-14" d="M112.18,55c4,1.25,6.5,4.88,3.13,12.38s-7.75,4.25-8.63,4.37-2.62-6.87-1.37-10.12C107.56,55,112.18,55,112.18,55Z"/><path class="cls-14" d="M82.56,56.64c1.5-4.9,3.5-8.9,6.12-8.26s4,.65,1.88,9.3S82.56,56.64,82.56,56.64Z"/></g><g id="Nose"><ellipse class="cls-15" cx="86.43" cy="69.75" rx="15.63" ry="13.29"/></g></g></g></svg>