<svg xmlns="http://www.w3.org/2000/svg" viewBox="0 0 96.8 95.87"><defs><style>.cls-1{fill:#ea3232;}.cls-2{fill:#e5e2e3;}.cls-3{fill:#ffdf8e;}.cls-4{fill:#0e0c0f;}</style></defs><title>Mushroom</title><g id="Layer_2" data-name="Layer 2"><g id="Mushroom"><g id="Layer_32" data-name="Layer 32"><path class="cls-1" d="M85.15,33.63a39,39,0,0,1,1.77-11.71l-.17-.25C64.05-10.25,26-4,9.33,21.67l-.07.11a38.89,38.89,0,0,1,1.9,12.11c0,10.39-3.95,19.57-10,25.19C3.59,68.15,9.76,74.9,18.33,77.5l59.05-5.22-.09,5.22C83.11,77.11,92,70.24,95.37,59,89.19,53.42,85.15,44.14,85.15,33.63Zm-37,15.26c-13.21,0-23.93-10.47-23.93-23.39S34.94,2.12,48.15,2.12,72.08,12.59,72.08,25.5,61.37,48.89,48.15,48.89Z"/><path class="cls-2" d="M11.16,33.89a38.89,38.89,0,0,0-1.9-12.11c-8.83,13.66-10.88,27-8.11,37.3C7.21,53.46,11.16,44.28,11.16,33.89Z"/><ellipse class="cls-2" cx="48.15" cy="25.5" rx="23.93" ry="23.39"/><path class="cls-2" d="M86.92,21.92a39,39,0,0,0-1.77,11.71c0,10.51,4,19.79,10.22,25.39C98.31,49.4,97.26,36.59,86.92,21.92Z"/></g><g id="Layer_30" data-name="Layer 30"><path class="cls-3" d="M18.84,73.14c5.33-11.74,44-17.66,58.69-.68,0,20.22-9.65,22.25-27.11,23.32C11.76,97.53,18.84,73.14,18.84,73.14Z"/></g><g id="Layer_28" data-name="Layer 28"><ellipse class="cls-4" cx="38.75" cy="74.8" rx="2.6" ry="8.09"/><ellipse class="cls-4" cx="58.12" cy="74.8" rx="2.6" ry="8.09"/></g></g></g></svg>