<svg xmlns="http://www.w3.org/2000/svg" viewBox="0 0 75.52 72.09"><defs><style>.cls-1{fill:#fff605;}.cls-2{fill:#0e0c0f;}</style></defs><title>Star</title><g id="Layer_2" data-name="Layer 2"><g id="Star"><path class="cls-1" d="M40.21,1.52l9.55,19.35a2.74,2.74,0,0,0,2.06,1.5l21.35,3.1a2.74,2.74,0,0,1,1.52,4.67L59.24,45.2a2.73,2.73,0,0,0-.79,2.42L62.1,68.89a2.74,2.74,0,0,1-4,2.88L39,61.73a2.72,2.72,0,0,0-2.54,0l-19.1,10a2.74,2.74,0,0,1-4-2.88l3.65-21.27a2.73,2.73,0,0,0-.79-2.42L.83,30.14a2.74,2.74,0,0,1,1.51-4.67l21.36-3.1a2.74,2.74,0,0,0,2.06-1.5L35.31,1.52A2.73,2.73,0,0,1,40.21,1.52Z"/><ellipse class="cls-2" cx="29.76" cy="34.06" rx="2.15" ry="7.88"/><ellipse class="cls-2" cx="45.76" cy="34.06" rx="2.15" ry="7.88"/></g></g></svg>